<svg width="24" height="24" viewBox="0 0 24 24" fill="none" xmlns="http://www.w3.org/2000/svg">
  <circle cx="12" cy="4.75" r="2.25" fill="#E9F3FF"/>
  <path d="M6 8.75C6 8.06 6.56 7.5 7.25 7.5H16.75C17.44 7.5 18 8.06 18 8.75C18 9.44 17.44 10 16.75 10H13.25V11.95L17.96 17.62C18.36 18.11 18.3 18.84 17.81 19.24C17.32 19.65 16.59 19.58 16.18 19.09L12 14.06L7.82 19.09C7.41 19.58 6.68 19.65 6.19 19.24C5.7 18.84 5.64 18.11 6.04 17.62L10.75 11.95V10H7.25C6.56 10 6 9.44 6 8.75Z" fill="#E9F3FF"/>
  <path d="M12 11V20" stroke="#E9F3FF" stroke-width="1.9" stroke-linecap="round"/>
</svg>