<svg width="24" height="24" viewBox="0 0 24 24" fill="none" xmlns="http://www.w3.org/2000/svg">
  <path d="M4 6a2 2 0 012-2h2a2 2 0 012 2v2a2 2 0 01-2 2H6a2 2 0 01-2-2V6z" fill="currentColor" opacity="0.85"/>
  <path d="M14 6a2 2 0 012-2h2a2 2 0 012 2v2a2 2 0 01-2 2h-2a2 2 0 01-2-2V6z" fill="currentColor" opacity="0.85"/>
  <path d="M4 16a2 2 0 012-2h2a2 2 0 012 2v2a2 2 0 01-2 2H6a2 2 0 01-2-2v-2z" fill="currentColor" opacity="0.85"/>
  <path d="M14 16a2 2 0 012-2h2a2 2 0 012 2v2a2 2 0 01-2 2h-2a2 2 0 01-2-2v-2z" fill="currentColor" opacity="0.85"/>
  <path d="M10 7h4" stroke="currentColor" stroke-width="1.5" stroke-linecap="round"/>
  <path d="M7 10v4" stroke="currentColor" stroke-width="1.5" stroke-linecap="round"/>
  <path d="M17 10v4" stroke="currentColor" stroke-width="1.5" stroke-linecap="round"/>
  <path d="M10 17h4" stroke="currentColor" stroke-width="1.5" stroke-linecap="round"/>
</svg>
